<svg version="1.1"
	xmlns="http://www.w3.org/2000/svg"
	xmlns:xlink="http://www.w3.org/1999/xlink" width="24px" height="24px" viewBox="0,0,256,256">
	<g transform="translate(-21.33333,-21.33333) scale(1.16667,1.16667)">
		<g fill="#000000" fill-rule="evenodd" stroke="none" stroke-width="1" stroke-linecap="butt" stroke-linejoin="miter" stroke-miterlimit="10" stroke-dasharray="" stroke-dashoffset="0" font-family="none" font-weight="none" font-size="none" text-anchor="none" style="mix-blend-mode: normal">
			<g transform="scale(10.66667,10.66667)">
				<path d="M14.75,2h-0.12891l-0.25781,0.00781l-0.12891,0.00781l-0.125,0.00391l-0.12891,0.01172l-0.125,0.00781l-0.125,0.01563l-0.12891,0.00781l-0.125,0.01563l-0.125,0.01953l-0.12109,0.01953l-0.125,0.01563l-0.125,0.02344l-0.12109,0.02344l-0.125,0.02344l-0.12109,0.02344l-0.12109,0.03125l-0.24219,0.05469l-0.23437,0.07031l-0.12109,0.03125l-0.23437,0.07031l-0.11328,0.03906l-0.12109,0.04297l-0.11328,0.04297l-0.11328,0.03906l-0.22656,0.09375l-0.11328,0.04297l-0.11328,0.05078l-0.10937,0.04688l-0.10937,0.05469l-0.10937,0.04688l-0.21875,0.10938l-0.10547,0.05469l-0.10937,0.05859l-0.10547,0.05859l-0.10547,0.0625l-0.10156,0.05859l-0.10547,0.0625l-0.10156,0.0625l-0.10547,0.06641l-0.09766,0.0625l-0.10156,0.07031l-0.09766,0.06641l-0.10156,0.06641l-0.09375,0.07031l-0.10156,0.07422l-0.09375,0.07422l-0.09375,0.07031l-0.09375,0.07813l-0.1875,0.14844l-0.08984,0.07813l-0.17969,0.16406l-0.08984,0.07813l-0.08594,0.08594l-0.08594,0.07813l-0.17187,0.17188l-0.07812,0.08594l-0.08594,0.08594l-0.07812,0.08984l-0.16406,0.17969l-0.07812,0.08984l-0.14844,0.1875l-0.07812,0.09375l-0.07031,0.09375l-0.07422,0.09375l-0.07422,0.10156l-0.07031,0.09375l-0.06641,0.10156l-0.06641,0.09766l-0.07031,0.10156l-0.0625,0.09766l-0.06641,0.10547l-0.0625,0.10156l-0.0625,0.10547l-0.05859,0.10156l-0.0625,0.10547l-0.05859,0.10547l-0.05859,0.10938l-0.10937,0.21094l-0.05469,0.10938l-0.04687,0.10938l-0.05469,0.11328l-0.04687,0.10938l-0.05078,0.11328l-0.04297,0.11328l-0.09375,0.22656l-0.03906,0.11328l-0.08594,0.23438l-0.03906,0.11328l-0.07031,0.23438l-0.03125,0.12109l-0.07031,0.23438l-0.05469,0.24219l-0.03125,0.12109l-0.02344,0.12109l-0.02344,0.125l-0.02344,0.12109l-0.02344,0.125l-0.01562,0.125l-0.01953,0.12109l-0.01953,0.125l-0.01562,0.125l-0.00781,0.12891l-0.01562,0.125l-0.00781,0.125l-0.01172,0.12891l-0.00391,0.125l-0.00781,0.12891l-0.00781,0.25781v0.25781l0.00781,0.25781l0.00781,0.12891l0.00391,0.125l0.01172,0.12891l0.00781,0.125l0.01563,0.125l0.00781,0.12891l0.01563,0.125l0.01953,0.125l0.01953,0.12109l0.01563,0.125l0.02344,0.125l0.02344,0.12109l0.02344,0.125l0.02344,0.12109l0.03125,0.12109l0.05469,0.24219l0.07031,0.23438l0.03125,0.12109l0.07031,0.23438l0.03906,0.11328l0.04297,0.12109l0.04297,0.11328l0.03906,0.11328l0.09375,0.22656l0.04297,0.11328l0.05078,0.11328l0.04688,0.10938l0.05469,0.10938l0.04688,0.10938l0.10938,0.21875l0.05469,0.10547l0.05859,0.10938l0.05859,0.10547l0.0625,0.10547l0.05859,0.10156l0.0625,0.10547l0.0625,0.10156l0.06641,0.10547l0.0625,0.09766l0.07031,0.10156l0.13281,0.19531l0.07031,0.10156l0.07422,0.09766l0.07422,0.09375l0.07031,0.09375l0.07813,0.09375l0.14844,0.1875l0.07813,0.08984l0.16406,0.17969l0.07813,0.08984l0.08594,0.08594l0.07813,0.08594l0.17188,0.17188l0.08594,0.07813l0.08594,0.08594l0.08984,0.08203l0.08984,0.07813l0.08984,0.08203l0.08984,0.07813l0.09375,0.07422l0.09375,0.07813l0.09375,0.07031l0.1875,0.14844l0.10156,0.07031l0.09375,0.07422l0.10156,0.06641l0.09766,0.07031l0.10156,0.06641l0.09766,0.0625l0.10547,0.06641l0.10156,0.0625l0.10547,0.0625l0.10156,0.05859l0.10547,0.0625l0.10547,0.05859l0.10938,0.05469l0.10547,0.05859l0.21875,0.10938l0.10938,0.04688l0.10938,0.05078l0.10938,0.05469l0.33984,0.14063l0.11328,0.03906l0.22656,0.08594l0.12109,0.03906l0.11328,0.04297l0.23438,0.07031l0.12109,0.03516l0.11719,0.03125l0.11719,0.03516l0.12109,0.02734l0.12109,0.03125l0.12109,0.02344l0.12109,0.02734l0.125,0.02344l0.12109,0.02344l0.125,0.01953l0.125,0.02344l0.12109,0.01563l0.125,0.01953l0.125,0.01563l0.12891,0.01172l0.125,0.01172l0.125,0.00781l0.12891,0.01172l0.125,0.00391l0.12891,0.00781l0.25781,0.00781h0.28125l0.14844,-0.00391l0.15234,-0.00781l0.14844,-0.00391l0.14844,-0.01172l0.15234,-0.01172l0.14453,-0.01562l0.14844,-0.01562l0.14844,-0.01953l0.14453,-0.01953l0.14844,-0.02344l0.14063,-0.02344l0.14453,-0.03125l0.14063,-0.02734l0.14453,-0.03125l0.14063,-0.03125l0.28125,-0.07031l0.14063,-0.04297l0.13672,-0.03906l0.14063,-0.04297l0.13672,-0.04297l0.13281,-0.04687l0.27344,-0.10156l0.12891,-0.05469l0.13672,-0.05078l0.25781,-0.11719l0.13281,-0.05469l0.12891,-0.0625l0.125,-0.0625l-0.15234,-0.07812l-0.14844,-0.08594l-0.15234,-0.08203l-0.14453,-0.08594l-0.14844,-0.08594l-0.14453,-0.09375l-0.28125,-0.1875l-0.14062,-0.09766l-0.27344,-0.20312l-0.26562,-0.21094l-0.12891,-0.10937l-0.12891,-0.11328l-0.125,-0.10937l-0.25,-0.23437l-0.23437,-0.24219l-0.12109,-0.12109l-0.11328,-0.125l-0.32812,-0.38672l-0.10547,-0.13672l-0.10156,-0.13281l-0.10547,-0.13672l-0.09375,-0.14062l-0.09766,-0.14062l-0.1875,-0.28125l-0.08984,-0.14844l-0.08984,-0.14453l-0.08203,-0.14844l-0.08203,-0.15234l-0.07812,-0.15234l-0.07812,-0.14844l-0.14844,-0.3125l-0.06641,-0.15625l-0.13281,-0.32031l-0.03125,-0.08203l-0.02734,-0.07812l-0.03125,-0.08203l-0.02734,-0.08203l-0.03125,-0.08203l-0.05469,-0.16406l-0.02344,-0.08203l-0.02734,-0.08594l-0.02344,-0.08203l-0.02734,-0.08203l-0.01953,-0.08594l-0.02734,-0.08203l-0.01953,-0.08594l-0.02344,-0.08203l-0.01953,-0.08984l-0.01953,-0.08203l-0.01562,-0.08594l-0.01953,-0.08594l-0.01953,-0.08984l-0.01562,-0.08203l-0.01953,-0.08984l-0.01172,-0.08594l-0.01562,-0.08984l-0.01562,-0.08594l-0.00781,-0.08594l-0.01562,-0.08984l-0.01172,-0.08594l-0.01172,-0.08984l-0.00781,-0.08984l-0.01172,-0.08984l-0.00781,-0.08594l-0.00781,-0.09375l-0.00391,-0.08984l-0.00781,-0.08594l-0.00391,-0.08984l-0.00391,-0.09375l-0.01172,-0.26953v-0.36719l0.01172,-0.26953l0.00391,-0.09375l0.00391,-0.08984l0.00781,-0.08594l0.00391,-0.08984l0.00781,-0.09375l0.00781,-0.08594l0.01172,-0.08984l0.00781,-0.08984l0.01172,-0.08984l0.01172,-0.08594l0.01563,-0.08984l0.00781,-0.08594l0.01563,-0.08594l0.01563,-0.08984l0.01172,-0.08594l0.01953,-0.08984l0.01563,-0.08203l0.01953,-0.08984l0.01953,-0.08594l0.01563,-0.08594l0.03906,-0.17187l0.02344,-0.08203l0.01953,-0.08203l0.02734,-0.08594l0.01953,-0.08594l0.02734,-0.08203l0.02344,-0.08203l0.02734,-0.08594l0.02344,-0.08203l0.05469,-0.16406l0.03125,-0.08203l0.02734,-0.08203l0.03125,-0.08203l0.02734,-0.07812l0.03125,-0.08594l0.13281,-0.3125l0.06641,-0.16016l0.07422,-0.15625l0.07422,-0.15234l0.07813,-0.15625l0.07813,-0.14844l0.08203,-0.14844l0.08203,-0.15234l0.08984,-0.14453l0.08984,-0.14844l0.1875,-0.28125l0.09766,-0.14062l0.09375,-0.14062l0.10547,-0.13672l0.10156,-0.13672l0.10547,-0.13281l0.21875,-0.25781l0.10938,-0.125l0.11328,-0.12891l0.12109,-0.12109l0.11719,-0.125l0.11719,-0.11719l0.25,-0.23437l0.125,-0.10937l0.12891,-0.11328l0.12891,-0.10937l0.26563,-0.21094l0.27344,-0.20312l0.14063,-0.09766l0.28125,-0.1875l0.14453,-0.09375l0.14844,-0.08594l0.14453,-0.08594l0.15234,-0.08594l0.14844,-0.07812l0.15234,-0.07812l-0.125,-0.0625l-0.12891,-0.0625l-0.13281,-0.0625l-0.25781,-0.10937l-0.13672,-0.05469l-0.12891,-0.05469l-0.27344,-0.10156l-0.13281,-0.04687l-0.13672,-0.04297l-0.14062,-0.04297l-0.13672,-0.03906l-0.28125,-0.07812l-0.28125,-0.07031l-0.14453,-0.02734l-0.14062,-0.02734l-0.14453,-0.03125l-0.14062,-0.02344l-0.14844,-0.02344l-0.14453,-0.01953l-0.14844,-0.01953l-0.14844,-0.01562l-0.14453,-0.01562l-0.15234,-0.01172l-0.14844,-0.01172l-0.14844,-0.00781l-0.15234,-0.00391l-0.14844,-0.00391zM14.75,4h0.05859l-0.13672,0.15234l-0.12891,0.15234l-0.13281,0.16016l-0.25,0.32031l-0.11719,0.16406l-0.12109,0.16797l-0.11328,0.16406l-0.11719,0.17188l-0.10937,0.17188l-0.10547,0.17188l-0.10547,0.17969l-0.10156,0.17969l-0.09766,0.17578l-0.1875,0.36719l-0.08984,0.18359l-0.17187,0.375l-0.07812,0.19531l-0.07812,0.1875l-0.03516,0.10156l-0.03906,0.09375l-0.03516,0.10156l-0.03516,0.09375l-0.03125,0.10156l-0.03516,0.09766l-0.03125,0.09766l-0.0625,0.20313l-0.03125,0.09766l-0.02734,0.09766l-0.03125,0.10156l-0.02734,0.10156l-0.02344,0.10156l-0.02734,0.10156l-0.02344,0.10547l-0.02344,0.10156l-0.02344,0.10547l-0.02344,0.10156l-0.01953,0.10156l-0.03906,0.21094l-0.01953,0.10156l-0.03125,0.21094l-0.01562,0.10938l-0.01562,0.10547l-0.01562,0.10156l-0.01562,0.10938l-0.00781,0.10547l-0.01172,0.10938l-0.01172,0.10547l-0.00781,0.10547l-0.00781,0.10938l-0.00781,0.10547l-0.00781,0.10938l-0.00391,0.10547l-0.01172,0.32813v0.4375l0.01172,0.32813l0.00391,0.10547l0.00781,0.10938l0.00781,0.10547l0.00781,0.10938l0.00781,0.10547l0.01172,0.10547l0.01172,0.10938l0.00781,0.10547l0.01563,0.10938l0.01563,0.10156l0.01563,0.10547l0.01563,0.10938l0.01563,0.10547l0.01563,0.10156l0.03906,0.21094l0.01953,0.10156l0.01953,0.10547l0.02344,0.10547l0.07031,0.30469l0.02734,0.10547l0.02344,0.09766l0.02734,0.10547l0.03125,0.09766l0.02734,0.10156l0.03125,0.09766l0.0625,0.20313l0.03125,0.09766l0.03516,0.10156l0.03125,0.09766l0.03516,0.09375l0.03516,0.09766l0.03906,0.10156l0.03516,0.09766l0.07813,0.1875l0.07813,0.19141l0.17188,0.375l0.08984,0.1875l0.1875,0.36719l0.09766,0.17578l0.10156,0.17969l0.10547,0.17969l0.10547,0.17188l0.10938,0.17188l0.11719,0.17188l0.11328,0.16797l0.12109,0.16406l0.11719,0.16406l0.25,0.32031l0.13281,0.15625l0.12891,0.15625l0.13672,0.15234h-0.16406l-0.10156,-0.00391h-0.10547l-0.09766,-0.00781l-0.10547,-0.00391l-0.20312,-0.01562l-0.09766,-0.01172l-0.10547,-0.00781l-0.09766,-0.01172l-0.10156,-0.01562l-0.19531,-0.03125l-0.10156,-0.01562l-0.09766,-0.01562l-0.09766,-0.01953l-0.09766,-0.02344l-0.09766,-0.01953l-0.09375,-0.02734l-0.09766,-0.01953l-0.09375,-0.02734l-0.09375,-0.02344l-0.09375,-0.02734l-0.09766,-0.03125l-0.08984,-0.03125l-0.28125,-0.09375l-0.08984,-0.03516l-0.09375,-0.03516l-0.08594,-0.03906l-0.08984,-0.03516l-0.09375,-0.03906l-0.08594,-0.03516l-0.08594,-0.04297l-0.08984,-0.03906l-0.08594,-0.04297l-0.08984,-0.04687l-0.08203,-0.04687l-0.08984,-0.04297l-0.08203,-0.04687l-0.08594,-0.04687l-0.08203,-0.05078l-0.08203,-0.04687l-0.08203,-0.05078l-0.08203,-0.05469l-0.08203,-0.05078l-0.07812,-0.05078l-0.07812,-0.05859l-0.08203,-0.05469l-0.07422,-0.05469l-0.07812,-0.05859l-0.07812,-0.05469l-0.07812,-0.05859l-0.29687,-0.25l-0.14062,-0.125l-0.28125,-0.26562l-0.06641,-0.06641l-0.06641,-0.07422l-0.06641,-0.06641l-0.06641,-0.07422l-0.0625,-0.06641l-0.3125,-0.37109l-0.05469,-0.07812l-0.11719,-0.15625l-0.05469,-0.07422l-0.05469,-0.08203l-0.10937,-0.15625l-0.05469,-0.08203l-0.10156,-0.16406l-0.04687,-0.08203l-0.05078,-0.08203l-0.04687,-0.08594l-0.04687,-0.08203l-0.04297,-0.08984l-0.04687,-0.08203l-0.04687,-0.08984l-0.03906,-0.08594l-0.04297,-0.08594l-0.04297,-0.08984l-0.03516,-0.08594l-0.03906,-0.09375l-0.03516,-0.08984l-0.03906,-0.08594l-0.03516,-0.09375l-0.03516,-0.08984l-0.09375,-0.28125l-0.03125,-0.08984l-0.03125,-0.09766l-0.02344,-0.09375l-0.05469,-0.1875l-0.02344,-0.09766l-0.02344,-0.09375l-0.03906,-0.19531l-0.02344,-0.09766l-0.01562,-0.09766l-0.01562,-0.10156l-0.03125,-0.19531l-0.01562,-0.10156l-0.00781,-0.09766l-0.01562,-0.10156l-0.02344,-0.30469l-0.00781,-0.10547v-0.09766l-0.00391,-0.10547l-0.00391,-0.10156v-0.21094l0.00391,-0.10156l0.00391,-0.10547v-0.09766l0.00781,-0.10547l0.02344,-0.30469l0.01563,-0.10156l0.00781,-0.09766l0.01563,-0.10156l0.03125,-0.19531l0.01563,-0.10156l0.01563,-0.09766l0.02344,-0.09766l0.03906,-0.19531l0.02344,-0.09375l0.02344,-0.09766l0.05469,-0.1875l0.02344,-0.09375l0.03125,-0.09766l0.03125,-0.08984l0.09375,-0.28125l0.07031,-0.17969l0.03906,-0.09375l0.03516,-0.08594l0.03906,-0.09375l0.03516,-0.08594l0.04297,-0.08984l0.04297,-0.08594l0.03906,-0.08984l0.09375,-0.17187l0.04297,-0.08594l0.09375,-0.16406l0.05078,-0.08594l0.04688,-0.08203l0.10156,-0.16406l0.05469,-0.08203l0.10938,-0.15625l0.05469,-0.08203l0.05469,-0.07422l0.11719,-0.15625l0.05469,-0.07812l0.25,-0.29687l0.125,-0.14062l0.26563,-0.28125l0.28125,-0.26562l0.14063,-0.125l0.29688,-0.25l0.07813,-0.05469l0.15625,-0.11719l0.07422,-0.05469l0.08203,-0.05469l0.15625,-0.10937l0.08203,-0.05469l0.16406,-0.10156l0.08203,-0.04687l0.08203,-0.05078l0.08594,-0.04687l0.08203,-0.04687l0.08984,-0.04297l0.08203,-0.04687l0.08984,-0.04687l0.08594,-0.03906l0.08984,-0.04297l0.08594,-0.04297l0.08594,-0.03516l0.09375,-0.03906l0.08984,-0.03516l0.08594,-0.03906l0.09375,-0.03516l0.08984,-0.03516l0.28125,-0.09375l0.08984,-0.03125l0.09766,-0.03125l0.09375,-0.02344l0.1875,-0.05469l0.09766,-0.02344l0.09375,-0.02344l0.19531,-0.03906l0.09766,-0.02344l0.09766,-0.01562l0.10156,-0.01562l0.19531,-0.03125l0.10156,-0.01562l0.09766,-0.00781l0.10547,-0.01562l0.09766,-0.00781l0.20313,-0.01562l0.10547,-0.00781h0.09766l0.10547,-0.00391l0.10156,-0.00391z"></path>
			</g>
		</g>
	</g>
</svg>